<?xml version="1.0" standalone="yes"?>
<svg xmlns="http://www.w3.org/2000/svg" width="50" height="50">
<path style="fill:#010101; stroke:none;" d="M0 0L1 1L0 0z"/>
<path style="fill:#6fbfdc; stroke:none;" d="M0 13L1 13L7 11L10 8L11 7L10 5L13 7L15 6L15 2L22 1C17.9689 -0.547775 3.90461 -2.02889 1.02778 1.60339C-1.04712 4.22316 0 9.85497 0 13z"/>
<path style="fill:#36a7ce; stroke:none;" d="M18 0L19 1L18 0M20 0L21 1L20 0M15 2L15 6L13 7L10 5L10 8L7 11L1 11C-3.3835 29.4119 0 52.0823 0 71C0 75.8969 -2.1237 87.4175 1.02778 91.3966C4.16289 95.355 18.3299 93 23 93L79 93C83.762 93 94.7704 95.0228 98.3966 91.3966C101.905 87.8878 100 77.5902 100 73L100 21C100 16.6552 102.262 2.85703 97.6821 0.603394C92.1274 -2.12988 81.1354 0 75 0C59.0348 0 42.9535 -0.567268 27 0.0185165C22.8245 0.171829 19.1645 2.15522 15 2z"/>
<path style="fill:#010101; stroke:none;" d="M99 0L100 1L99 0z"/>
<path style="fill:#6fbfdc; stroke:none;" d="M44 8L44 9L47 9L44 8z"/>
<path style="fill:#f5fafc; stroke:none;" d="M47 8.50694C33.7641 10.4031 28.1087 27.5621 38.108 36.7724C43.6807 41.9053 48.7116 38.3406 54.4823 40.5417C57.949 41.864 59.51 49.5302 63.7716 48.8241C68.6407 48.0173 61.4488 38.2668 61.3897 36C61.3017 32.6288 63.6504 29.4354 63.902 26C64.6008 16.4582 57.2202 7.04278 47 8.50694z"/>
<path style="fill:#6fbfdc; stroke:none;" d="M51.6667 8.33334L52.3333 8.66666L51.6667 8.33334M42 9L43 10L42 9M55 9L56 10L55 9M40 10L41 11L40 10M56 10L57 11L56 10M58 11L59 12L58 11M37 12L38 13L37 12M59 12L60 13L59 12M60 13L61 14L60 13M46 14L46 15L51 15L46 14M61 14L62 15L61 14M35 15L36 16L35 15M44 15L45 16L44 15z"/>
<path style="fill:#36a7ce; stroke:none;" d="M45.0154 15.7423C33.7411 20.1647 40.5847 37.7116 51.9846 33.3966C63.2772 29.1221 56.5155 11.2313 45.0154 15.7423z"/>
<path style="fill:#6fbfdc; stroke:none;" d="M53 15L54 16L53 15M42 16L43 17L42 16M54 16L55 17L54 16M62 16L63 17L62 16M34 17L35 18L34 17M41 17L42 18L41 17M55 17L56 18L55 17M40 18L41 19L40 18M56 18L57 19L56 18M63.3333 18.6667L63.6667 19.3333L63.3333 18.6667M33 19L34 20L33 19M39 20L40 21L39 20M57 20L58 21L57 20M32 23L32 26L33 26L32 23M58 23L58 26L59 26L58 23M64 23L64 26L65 26L64 23M38.3333 24.6667L38.6667 25.3333L38.3333 24.6667M39 28L40 29L39 28M57 28L58 29L57 28M33.3333 29.6667L33.6667 30.3333L33.3333 29.6667M63 29L64 30L63 29M40 30L41 31L40 30M56 30L57 31L56 30M41 31L42 32L41 31M55 31L56 32L55 31M34 32L35 33L34 32M42 32L43 33L42 32M54 32L55 33L54 32M62 32L63 33L62 32M43 33L44 34L43 33M53 33L54 34L53 33M61 33L62 34L61 33M45 34L45 35L51 35L45 34M36 35L37 36L36 35M37 36L38 37L37 36M38 37L39 38L38 37M61 38L62 39L61 38M41 39L42 40L41 39M54 39L55 40L54 39M62 39L63 40L62 39M44.6667 40.3333L45.3333 40.6667L44.6667 40.3333M51.6667 40.3333L52.3333 40.6667L51.6667 40.3333M55 40L56 41L55 40M56 41L57 42L56 41M63 41L64 42L63 41M38 42L39 43L38 42z"/>
<path style="fill:#f5fafc; stroke:none;" d="M33 53C29.6738 52.2085 26.3861 51.6734 23 52.5579C-2.69292 59.2686 22.0114 100.002 39.581 77.9568C41.3981 75.6769 42.5092 72.8988 42.8002 70C43.2561 65.4577 41.1789 62.1097 39.777 58C38.0289 52.8753 43.9826 48.9729 42.2955 44.3372C40.0592 38.1922 33.699 51.3299 33 53z"/>
<path style="fill:#6fbfdc; stroke:none;" d="M42 42L43 43L42 42M64 42L65 43L64 42M57 43L58 44L57 43M37 44L38 45L37 44M43.3333 44.6667L43.6667 45.3333L43.3333 44.6667M58 44L59 45L58 44M65 44L66 45L65 44M36 45L37 46L36 45M59 46L60 47L59 46M66.3333 46.6667L66.6667 47.3333L66.3333 46.6667M35 47L36 48L35 47M42 47L43 48L42 47M60 47L61 48L60 47M34 49L35 50L34 49M41 49L42 50L41 49M62 49L63 50L62 49M64 49L65 50L64 49M71.6667 50.3333L72.3333 50.6667L71.6667 50.3333z"/>
<path style="fill:#f5fafc; stroke:none;" d="M59 69C61.6779 83.785 81.7058 86.6019 88.5432 72.9992C94.4686 61.2109 83.7893 47.5575 71 50.9321C63.4196 52.9323 63.1492 59.335 57.5849 62.9722C54.3978 65.0555 49.5607 62.5759 46.662 65.0085C41.7469 69.1332 57.4741 69 59 69z"/>
<path style="fill:#6fbfdc; stroke:none;" d="M77.6667 50.3333L78.3333 50.6667L77.6667 50.3333M25 51L25 52L28 52L25 51M33 51L34 52L33 51M40 51L41 52L40 51M68 51L69 52L68 51M81 51L82 52L81 51M21.6667 52.3333L22.3333 52.6667L21.6667 52.3333M31.6667 52.3333L32.3333 52.6667L31.6667 52.3333M39 52L40 53L39 52M66 52L67 53L66 52M83 52L84 53L83 52M19 53L20 54L19 53M84 53L85 54L84 53M18 54L19 55L18 54M38 54L39 55L38 54M15 56L16 57L15 56M38 56L39 57L38 56M72.6667 56.3333L73.3333 56.6667L72.6667 56.3333z"/>
<path style="fill:#36a7ce; stroke:none;" d="M74.0008 56.6644C61.8184 57.6432 62.2667 76.808 75 75.8727C87.1494 74.9803 86.5099 55.6593 74.0008 56.6644z"/>
<path style="fill:#6fbfdc; stroke:none;" d="M76.6667 56.3333L77.3333 56.6667L76.6667 56.3333M87 56L88 57L87 56M61 57L62 58L61 57M69 57L70 58L69 57M79 57L80 58L79 57M88 57L89 58L88 57M14 58L15 59L14 58M23 58L24 59L23 58z"/>
<path style="fill:#36a7ce; stroke:none;" d="M24.0154 58.7461C12.6623 63.0601 19.2296 81.9457 30.9568 77.2569C42.0757 72.8114 35.1492 54.5155 24.0154 58.7461z"/>
<path style="fill:#6fbfdc; stroke:none;" d="M30 58L31 59L30 58M60 58L61 59L60 58M68 58L69 59L68 58M13 59L14 60L13 59M21 59L22 60L21 59M32 59L33 60L32 59M40 59L41 60L40 59M89.3333 59.6667L89.6667 60.3333L89.3333 59.6667M20 60L21 61L20 60M33 60L34 61L33 60M59.3333 60.6667L59.6667 61.3333L59.3333 60.6667M66 60L67 61L66 60M12 61L13 62L12 61M19 61L20 62L19 61M34 61L35 62L34 61M41 61L42 62L41 61M83 61L84 62L83 61M35 62L36 63L35 62M18 63L19 64L18 63M42.3333 63.6667L42.6667 64.3333L42.3333 63.6667M48 63L48 64L59 64L48 63M90 63L90 69L91 69L90 63M11 64L11 71L12 71L11 64M36 64L37 65L36 64M64 64L64 69L65 69L64 64M84 64L84 68L85 68L84 64M17 65L17 71L18 71L17 65M45 68L46 69L45 68M46 69L46 70L59 70L46 69M83 70L84 71L83 70M36 71L37 72L36 71M65 71L66 72L65 71M89 71L90 72L89 71M18 72L19 73L18 72M42 72L43 73L42 72M59 72L60 73L59 72M12 73L13 74L12 73M35 73L36 74L35 73M81 73L82 74L81 73M88 73L89 74L88 73M19 74L20 75L19 74M60 74L61 75L60 74M68 74L69 75L68 74M13 75L14 76L13 75M20 75L21 76L20 75M41 75L42 76L41 75M69 75L70 76L69 75M78 75L79 76L78 75M21 76L22 77L21 76M72 76L72 77L76 77L72 76M86 76L87 77L86 76M14 77L15 78L14 77M23 77L24 78L23 77M31 77L32 78L31 77M40 77L41 78L40 77M62 77L63 78L62 77M85 77L86 78L85 77M15 78L16 79L15 78M26.6667 78.3333L27.3333 78.6667L26.6667 78.3333M39 78L40 79L39 78M63 78L64 79L63 78M84 78L85 79L84 78M38 79L39 80L38 79M37 80L38 81L37 80M66 80L67 81L66 80M81 80L82 81L81 80M18 81L19 82L18 81M36 81L37 82L36 81M68.6667 81.3333L69.3333 81.6667L68.6667 81.3333M78 81L79 82L78 81M20 82L21 83L20 82M34 82L35 83L34 82M74 82L75 83L74 82M22 83L23 84L22 83M32 83L33 84L32 83M25 84L25 85L29 85L25 84z"/>
<path style="fill:#19789b; stroke:none;" d="M99 91C91.3033 95.1075 79.5818 93 71 93C48.7283 93 21.6616 97.1572 0 92C0.129915 102.961 10.5774 100 19 100L81 100C87.8744 100 103.894 102.692 99 91z"/>
<path style="fill:#010101; stroke:none;" d="M0 99L1 100L0 99M99 99L100 100L99 99z"/>
</svg>
